<?xml version="1.0" encoding="UTF-8"?>
<svg xmlns="http://www.w3.org/2000/svg" width="49" height="44" viewBox="0 0 49 44" fill="none">
  <rect width="49" height="44" fill="white" fill-opacity="0.05"></rect>
  <rect x="0.5" y="0.5" width="48" height="43" stroke="white" stroke-opacity="0.08"></rect>
  <rect x="14" y="11" width="21" height="21" fill="#A8F0FC"></rect>
  <path d="M21.6667 16.3333C21.6667 17.0641 21.2051 17.6667 20.3333 17.6667C19.5385 17.6667 19 17.0641 19 16.3974C19 15.6667 19.5385 15 20.3333 15C21.1282 15 21.6667 15.6026 21.6667 16.3333Z" fill="black"></path>
  <path d="M21.6667 18.332H19V26.9859H21.6667V18.332Z" fill="black"></path>
  <path d="M28.0638 18.4609C26.6663 18.4609 25.8714 19.2558 25.5381 19.7943H25.474L25.3458 18.6661H22.9355C22.9355 19.3968 22.9996 20.2686 22.9996 21.2686V26.9994H25.6663V22.2558C25.6663 21.9866 25.6663 21.7943 25.7304 21.5891C25.9355 21.1276 26.2689 20.525 26.9996 20.525C27.9355 20.525 28.333 21.3199 28.333 22.384V26.9738H30.9996V22.0635C30.9868 19.5891 29.7176 18.4609 28.0638 18.4609Z" fill="black"></path>
</svg>
