<?xml version="1.0" encoding="UTF-8"?>
<svg xmlns="http://www.w3.org/2000/svg" width="44" height="44" viewBox="0 0 44 44" fill="none">
  <rect width="44" height="44" fill="white" fill-opacity="0.05"></rect>
  <rect x="0.5" y="0.5" width="43" height="43" stroke="white" stroke-opacity="0.08"></rect>
  <rect x="12" y="12" width="20" height="20" fill="#A8F0FC"></rect>
  <path d="M22 17.0811C23.6021 17.0811 23.7918 17.0872 24.4245 17.1161C25.0095 17.1428 25.3272 17.2405 25.5386 17.3227C25.8187 17.4315 26.0186 17.5615 26.2285 17.7715C26.4385 17.9814 26.5685 18.1813 26.6773 18.4614C26.7595 18.6728 26.8572 18.9905 26.8839 19.5755C26.9128 20.2082 26.9189 20.3979 26.9189 22C26.9189 23.6021 26.9128 23.7918 26.8839 24.4245C26.8572 25.0095 26.7595 25.3272 26.6773 25.5387C26.5685 25.8187 26.4385 26.0186 26.2285 26.2285C26.0186 26.4385 25.8187 26.5685 25.5386 26.6773C25.3272 26.7595 25.0095 26.8573 24.4245 26.884C23.7919 26.9128 23.6022 26.9189 22 26.9189C20.3978 26.9189 20.2081 26.9128 19.5755 26.884C18.9905 26.8573 18.6728 26.7595 18.4614 26.6773C18.1813 26.5685 17.9814 26.4385 17.7715 26.2285C17.5615 26.0186 17.4315 25.8187 17.3227 25.5387C17.2405 25.3272 17.1427 25.0095 17.116 24.4245C17.0872 23.7918 17.0811 23.6021 17.0811 22C17.0811 20.3979 17.0872 20.2082 17.116 19.5755C17.1427 18.9905 17.2405 18.6728 17.3227 18.4614C17.4315 18.1813 17.5615 17.9814 17.7715 17.7715C17.9814 17.5615 18.1813 17.4315 18.4614 17.3227C18.6728 17.2405 18.9905 17.1428 19.5755 17.1161C20.2082 17.0872 20.3979 17.0811 22 17.0811ZM22 16C20.3705 16 20.1662 16.0069 19.5262 16.0361C18.8876 16.0653 18.4514 16.1667 18.0697 16.315C17.6752 16.4683 17.3406 16.6735 17.007 17.0071C16.6735 17.3406 16.4683 17.6752 16.315 18.0698C16.1666 18.4514 16.0652 18.8876 16.0361 19.5262C16.0069 20.1662 16 20.3705 16 22C16 23.6295 16.0069 23.8339 16.0361 24.4738C16.0652 25.1124 16.1666 25.5486 16.315 25.9303C16.4683 26.3248 16.6735 26.6594 17.007 26.993C17.3406 27.3265 17.6752 27.5317 18.0697 27.685C18.4514 27.8334 18.8876 27.9348 19.5262 27.9639C20.1662 27.9931 20.3705 28 22 28C23.6295 28 23.8338 27.9931 24.4738 27.9639C25.1124 27.9348 25.5486 27.8334 25.9302 27.685C26.3248 27.5317 26.6594 27.3265 26.9929 26.993C27.3265 26.6594 27.5317 26.3248 27.685 25.9303C27.8333 25.5486 27.9347 25.1124 27.9639 24.4738C27.9931 23.8339 28 23.6295 28 22C28 20.3705 27.9931 20.1662 27.9639 19.5262C27.9347 18.8876 27.8333 18.4514 27.685 18.0698C27.5317 17.6752 27.3265 17.3406 26.9929 17.0071C26.6594 16.6735 26.3248 16.4683 25.9302 16.315C25.5486 16.1667 25.1124 16.0653 24.4738 16.0361C23.8338 16.0069 23.6295 16 22 16ZM22 18.9189C20.2984 18.9189 18.9189 20.2984 18.9189 22C18.9189 23.7016 20.2984 25.0811 22 25.0811C23.7016 25.0811 25.0811 23.7016 25.0811 22C25.0811 20.2984 23.7016 18.9189 22 18.9189ZM22 24C20.8954 24 20 23.1046 20 22C20 20.8954 20.8954 20 22 20C23.1046 20 24 20.8954 24 22C24 23.1046 23.1046 24 22 24ZM25.9228 18.7972C25.9228 19.1948 25.6005 19.5172 25.2028 19.5172C24.8052 19.5172 24.4828 19.1948 24.4828 18.7972C24.4828 18.3995 24.8052 18.0772 25.2028 18.0772C25.6005 18.0772 25.9228 18.3995 25.9228 18.7972Z" fill="#0A0A08"></path>
</svg>
