<?xml version="1.0" encoding="UTF-8"?>
<svg xmlns="http://www.w3.org/2000/svg" id="emoto" viewBox="0 0 974 268.5">
  <defs>
    <style>
      .cls-1 {
        fill: #1d1d1b;
      }

      .cls-2 {
        fill: #b0deed;
      }

      .cls-3 {
        fill: #0d0802;
      }
    </style>
  </defs>
  <g>
    <path class="cls-2" d="M257.42,86.55l-58.69,84.58c-2.95,4.26-9.26,4.26-12.22,0L110.63,61.77h-35.27l91.08,131.26c12.68,18.28,39.69,18.28,52.38,0l91.07-131.26h-163.88l17.26,24.89,94.15-.11Z"></path>
    <path class="cls-2" d="M340.48,61.8l-101.19,144.91h23.99c7.07,0,13.69-3.46,17.73-9.25l94.73-135.66h-35.26Z"></path>
  </g>
  <rect class="cls-3" x="447.89" y="24.68" width="7.06" height="219.13"></rect>
  <g>
    <path class="cls-1" d="M532.81,129.69h36.67c.09,0,.16.03.22.09.06.06.08.13.08.22v5.24c0,.09-.03.17-.08.22-.06.06-.13.08-.22.08h-36.67v5.35c0,.8.28,1.48.85,2.06.57.58,1.26.87,2.08.87h38.61c.09,0,.16.03.22.09.06.06.08.12.08.19v5.24c0,.09-.03.17-.08.22-.06.06-.13.09-.22.09h-38.61c-2.7,0-5-.95-6.9-2.84-1.9-1.89-2.84-4.19-2.84-6.9v-14.57c0-2.7.95-5,2.84-6.9,1.89-1.89,4.19-2.84,6.9-2.84h38.61c.09,0,.16.03.22.09.06.06.08.13.08.22v5.24c0,.07-.03.13-.08.19-.06.06-.13.09-.22.09h-38.61c-.82,0-1.51.29-2.08.87-.57.58-.85,1.27-.85,2.06v5.35Z"></path>
    <path class="cls-1" d="M585.11,135.37c-.07,0-.13-.03-.17-.09-.05-.06-.07-.12-.07-.19v-5.28c0-.07.02-.13.07-.19.04-.06.1-.09.17-.09h19.03s.09.03.14.09c.04.06.07.12.07.19v5.28c0,.07-.02.13-.07.19-.05.06-.09.09-.14.09h-19.03Z"></path>
    <path class="cls-1" d="M621.37,132.61h36.71c.07,0,.13.03.19.09s.09.13.09.22v5.24c0,.07-.03.13-.09.19s-.12.09-.19.09h-36.71v10.9c0,.09-.03.17-.08.22s-.12.09-.19.09h-6.23c-.09,0-.17-.03-.22-.09-.06-.06-.09-.13-.09-.22v-24.99c0-2.4.86-4.47,2.57-6.18,1.71-1.71,3.79-2.57,6.21-2.57h39.57c.09,0,.17.03.22.09s.09.13.09.22v5.24c0,.07-.03.13-.09.19-.06.06-.13.09-.22.09h-38.61c-.79,0-1.48.29-2.06.87-.58.58-.87,1.27-.87,2.06v8.27Z"></path>
    <path class="cls-1" d="M722.06,149.37c0,.07-.03.13-.09.19-.06.06-.12.09-.19.09h-38.61c-2.7,0-5-.95-6.9-2.84-1.89-1.89-2.84-4.19-2.84-6.9v-24.01c0-.09.03-.17.09-.22.06-.06.12-.09.19-.09h6.23c.09,0,.16.03.22.09.06.06.08.13.08.22v24.99c0,.8.28,1.48.85,2.06.57.58,1.26.87,2.08.87h38.61c.07,0,.13.03.19.09s.09.12.09.19v5.28Z"></path>
    <path class="cls-1" d="M739.08,129.69h36.67c.09,0,.16.03.22.09s.09.13.09.22v5.24c0,.09-.03.17-.09.22s-.13.08-.22.08h-36.67v5.35c0,.8.28,1.48.85,2.06.57.58,1.26.87,2.08.87h38.61c.09,0,.17.03.22.09s.09.12.09.19v5.24c0,.09-.03.17-.09.22-.06.06-.13.09-.22.09h-38.61c-2.7,0-5-.95-6.9-2.84-1.89-1.89-2.84-4.19-2.84-6.9v-14.57c0-2.7.95-5,2.84-6.9,1.89-1.89,4.19-2.84,6.9-2.84h38.61c.09,0,.17.03.22.09s.09.13.09.22v5.24c0,.07-.03.13-.09.19-.06.06-.13.09-.22.09h-38.61c-.82,0-1.51.29-2.08.87-.57.58-.85,1.27-.85,2.06v5.35Z"></path>
    <path class="cls-1" d="M797.96,129.69h36.67c.09,0,.16.03.22.09s.09.13.09.22v5.24c0,.09-.03.17-.09.22s-.13.08-.22.08h-36.67v5.35c0,.8.28,1.48.85,2.06.57.58,1.26.87,2.08.87h38.61c.09,0,.17.03.22.09s.09.12.09.19v5.24c0,.09-.03.17-.09.22-.06.06-.13.09-.22.09h-38.61c-2.7,0-5-.95-6.9-2.84-1.89-1.89-2.84-4.19-2.84-6.9v-14.57c0-2.7.95-5,2.84-6.9,1.89-1.89,4.19-2.84,6.9-2.84h38.61c.09,0,.17.03.22.09s.09.13.09.22v5.24c0,.07-.03.13-.09.19-.06.06-.13.09-.22.09h-38.61c-.82,0-1.51.29-2.08.87-.57.58-.85,1.27-.85,2.06v5.35Z"></path>
    <path class="cls-1" d="M850.02,115.9c0-.09.03-.17.09-.22.06-.06.12-.09.19-.09h48.08c.07,0,.13.03.19.09s.09.13.09.22v5.24c0,.07-.03.13-.09.19-.06.06-.12.09-.19.09h-20.63v27.92c0,.09-.03.17-.08.22s-.12.09-.19.09h-6.23c-.09,0-.16-.03-.22-.09-.06-.06-.09-.13-.09-.22v-27.92h-20.63c-.07,0-.13-.03-.19-.09-.06-.06-.09-.12-.09-.19v-5.24Z"></path>
  </g>
</svg>
