<?xml version="1.0" encoding="UTF-8"?>
<svg xmlns="http://www.w3.org/2000/svg" width="44" height="44" viewBox="0 0 44 44" fill="none">
  <rect width="44" height="44" fill="white" fill-opacity="0.05"></rect>
  <rect x="0.5" y="0.5" width="43" height="43" stroke="white" stroke-opacity="0.08"></rect>
  <path d="M32.5 11.4998C29.9291 11.4998 11.5 11.4998 11.5 11.4998C11.5 14.0707 11.5 32.4998 11.5 32.4998H22.7178V24.3787H19.9902V21.2H22.7178V18.8606C22.7178 16.1478 24.3739 14.6713 26.7939 14.6713C27.9529 14.6713 28.9489 14.7576 29.2393 14.7962V17.6316H27.5706C26.2539 17.6316 25.999 18.2572 25.999 19.1754V21.2H29.147L28.7368 24.3787H25.999V32.4998C27.4793 32.4998 32.5 32.5 32.5 32.5C32.5 29.9291 32.5 11.4998 32.5 11.4998Z" fill="#A8F0FC"></path>
</svg>
