<?xml version="1.0" encoding="UTF-8"?>
<svg xmlns="http://www.w3.org/2000/svg" id="emoto" viewBox="0 0 190 60">
  <defs>
    <style>
      .cls-1 {
        fill: #1d1d1b;
      }

      .cls-2 {
        fill: #b0deed;
      }

      .cls-3 {
        fill: #0d0802;
      }
    </style>
  </defs>
  <g>
    <path class="cls-2" d="M46.04,18.39l-14.29,20.59c-.72,1.04-2.25,1.04-2.98,0L10.31,12.36H1.72l22.17,31.95c3.09,4.45,9.66,4.45,12.75,0l22.17-31.95H18.92l4.2,6.06,22.92-.03Z"></path>
    <path class="cls-2" d="M66.26,12.36l-24.63,35.27h5.84c1.72,0,3.33-.84,4.32-2.25l23.06-33.02h-8.58Z"></path>
  </g>
  <rect class="cls-3" x="92.4" y="3.33" width="1.72" height="53.34"></rect>
  <g>
    <path class="cls-1" d="M113.08,28.89h8.93s.04,0,.05.02c.01.01.02.03.02.05v1.28s0,.04-.02.05-.03.02-.05.02h-8.93v1.3c0,.19.07.36.21.5.14.14.31.21.51.21h9.4s.04,0,.05.02c.01.01.02.03.02.05v1.28s0,.04-.02.05c-.01.01-.03.02-.05.02h-9.4c-.66,0-1.22-.23-1.68-.69-.46-.46-.69-1.02-.69-1.68v-3.55c0-.66.23-1.22.69-1.68.46-.46,1.02-.69,1.68-.69h9.4s.04,0,.05.02c.01.01.02.03.02.05v1.28s0,.03-.02.05c-.01.01-.03.02-.05.02h-9.4c-.2,0-.37.07-.51.21-.14.14-.21.31-.21.5v1.3Z"></path>
    <path class="cls-1" d="M125.81,30.27s-.03,0-.04-.02c-.01-.01-.02-.03-.02-.05v-1.28s0-.03.02-.05c.01-.01.02-.02.04-.02h4.63s.02,0,.03.02c.01.01.02.03.02.05v1.28s0,.03-.02.05c-.01.01-.02.02-.03.02h-4.63Z"></path>
    <path class="cls-1" d="M142.92,25.46c.66,0,1.22.23,1.68.7s.69,1.02.69,1.67v5.85s0,.03-.02.05c-.01.01-.03.02-.05.02h-1.52s-.03,0-.05-.02c-.01-.01-.02-.03-.02-.05v-6.09c0-.19-.07-.36-.21-.5-.14-.14-.31-.21-.51-.21h-2.96v6.8s0,.03-.02.05c-.01.01-.03.02-.05.02h-1.51s-.04,0-.05-.02c-.01-.01-.02-.03-.02-.05v-6.8h-2.96c-.2,0-.37.07-.51.21-.14.14-.21.3-.21.5v6.09s0,.03-.02.05c-.01.01-.03.02-.05.02h-1.52s-.04,0-.05-.02c-.01-.01-.02-.03-.02-.05v-5.85c0-.65.23-1.21.7-1.67.46-.46,1.02-.7,1.67-.7h7.58Z"></path>
    <path class="cls-1" d="M157.25,25.46c.66,0,1.22.23,1.68.69.46.46.69,1.02.69,1.68v3.55c0,.66-.23,1.22-.69,1.68-.46.46-1.02.69-1.68.69h-7.1c-.65,0-1.21-.23-1.67-.69-.46-.46-.7-1.02-.7-1.68v-3.55c0-.66.23-1.22.7-1.68.46-.46,1.02-.69,1.67-.69h7.1ZM157.97,27.59c0-.19-.07-.36-.21-.5-.14-.14-.31-.21-.51-.21h-7.1c-.19,0-.36.07-.5.21-.14.14-.21.31-.21.5v4.03c0,.19.07.36.21.5.14.14.31.21.5.21h7.1c.2,0,.37-.07.51-.21.14-.14.21-.31.21-.5v-4.03Z"></path>
    <path class="cls-1" d="M162.11,25.53s0-.04.02-.05c.01-.01.03-.02.05-.02h11.7s.03,0,.05.02c.01.01.02.03.02.05v1.28s0,.03-.02.05-.03.02-.05.02h-5.02v6.8s0,.04-.02.05c-.01.01-.03.02-.05.02h-1.52s-.04,0-.05-.02c-.01-.01-.02-.03-.02-.05v-6.8h-5.02s-.03,0-.05-.02c-.01-.01-.02-.03-.02-.05v-1.28Z"></path>
    <path class="cls-1" d="M185.91,25.46c.66,0,1.22.23,1.68.69.46.46.69,1.02.69,1.68v3.55c0,.66-.23,1.22-.69,1.68-.46.46-1.02.69-1.68.69h-7.1c-.65,0-1.21-.23-1.67-.69-.46-.46-.7-1.02-.7-1.68v-3.55c0-.66.23-1.22.7-1.68.46-.46,1.02-.69,1.67-.69h7.1ZM186.62,27.59c0-.19-.07-.36-.21-.5-.14-.14-.31-.21-.51-.21h-7.1c-.19,0-.36.07-.5.21-.14.14-.21.31-.21.5v4.03c0,.19.07.36.21.5.14.14.31.21.5.21h7.1c.2,0,.37-.07.51-.21.14-.14.21-.31.21-.5v-4.03Z"></path>
  </g>
</svg>
