<?xml version="1.0" encoding="UTF-8"?>
<svg xmlns="http://www.w3.org/2000/svg" id="emoto" viewBox="0 0 974 268.5">
  <defs>
    <style>
      .cls-1 {
        fill: #1d1d1b;
      }

      .cls-2 {
        fill: #b0deed;
      }

      .cls-3 {
        fill: #0d0802;
      }
    </style>
  </defs>
  <g>
    <path class="cls-2" d="M198.56,86.55l-58.69,84.58c-2.95,4.26-9.26,4.26-12.22,0L51.77,61.77H16.5l91.08,131.26c12.68,18.28,39.69,18.28,52.38,0L251.03,61.77H87.15l17.26,24.89,94.15-.11Z"></path>
    <path class="cls-2" d="M281.62,61.8l-101.19,144.91h23.99c7.07,0,13.69-3.46,17.73-9.25l94.73-135.66h-35.26Z"></path>
  </g>
  <rect class="cls-3" x="389.03" y="24.68" width="7.06" height="219.13"></rect>
  <g>
    <path class="cls-1" d="M473.95,129.69h36.67c.09,0,.16.03.22.09.06.06.08.13.08.22v5.24c0,.09-.03.17-.08.22-.06.06-.13.08-.22.08h-36.67v5.35c0,.8.28,1.48.85,2.06.57.58,1.26.87,2.08.87h38.61c.09,0,.16.03.22.09.06.06.08.12.08.19v5.24c0,.09-.03.17-.08.22-.06.06-.13.09-.22.09h-38.61c-2.7,0-5-.95-6.9-2.84-1.9-1.89-2.84-4.19-2.84-6.9v-14.57c0-2.7.95-5,2.84-6.9,1.89-1.9,4.19-2.84,6.9-2.84h38.61c.09,0,.16.03.22.08.06.06.08.13.08.22v5.24c0,.07-.03.13-.08.19-.06.06-.13.08-.22.08h-38.61c-.82,0-1.51.29-2.08.87-.57.58-.85,1.27-.85,2.06v5.35Z"></path>
    <path class="cls-1" d="M526.25,135.37c-.07,0-.13-.03-.17-.09-.05-.06-.07-.12-.07-.19v-5.28c0-.07.02-.13.07-.19.04-.06.1-.09.17-.09h19.03s.09.03.14.09c.04.06.07.12.07.19v5.28c0,.07-.02.13-.07.19-.05.06-.09.09-.14.09h-19.03Z"></path>
    <path class="cls-1" d="M562.52,126.76c0,.82.28,1.51.85,2.08.57.57,1.25.85,2.04.85h29.21c2.68,0,4.97.95,6.86,2.84,1.89,1.9,2.84,4.19,2.84,6.9v.48c0,2.68-.95,4.97-2.84,6.88-1.89,1.91-4.18,2.86-6.86,2.86h-36.7c-.07,0-.13-.03-.19-.09-.06-.06-.09-.13-.09-.22v-5.24c0-.09.03-.16.09-.22.06-.06.12-.08.19-.08h36.7c.8,0,1.48-.28,2.04-.85.57-.57.85-1.25.85-2.04v-2.45c0-.79-.28-1.48-.85-2.06-.57-.58-1.25-.87-2.04-.87h-29.21c-2.68,0-4.97-.95-6.86-2.84-1.89-1.89-2.84-4.18-2.84-6.86v-.51c0-2.68.95-4.97,2.84-6.86,1.89-1.9,4.18-2.84,6.86-2.84h36.71c.07,0,.13.03.19.08.06.06.09.12.09.19v5.28c0,.07-.03.13-.09.19s-.12.08-.19.08h-36.71c-.8,0-1.48.28-2.04.85-.57.57-.85,1.26-.85,2.08v2.42Z"></path>
    <path class="cls-1" d="M662.9,143.82c.09,0,.17.03.22.09s.09.12.09.19v5.24c0,.09-.03.17-.09.22-.06.06-.13.09-.22.09h-38.61c-2.7,0-5-.95-6.9-2.84-1.89-1.89-2.84-4.19-2.84-6.9v-14.57c0-2.7.95-5,2.84-6.9,1.89-1.9,4.19-2.84,6.9-2.84h38.61c.09,0,.17.03.22.08.06.06.09.13.09.22v5.24c0,.07-.03.13-.09.19s-.13.08-.22.08h-38.61c-.82,0-1.51.29-2.08.87-.57.58-.85,1.27-.85,2.06v16.55c0,.8.28,1.48.85,2.06.57.58,1.26.87,2.08.87h38.61Z"></path>
    <path class="cls-1" d="M712.34,115.59c2.7,0,5,.95,6.9,2.84,1.89,1.89,2.84,4.19,2.84,6.9v14.57c0,2.7-.95,5-2.84,6.9-1.89,1.89-4.19,2.84-6.9,2.84h-29.18c-2.68,0-4.97-.95-6.88-2.84s-2.86-4.19-2.86-6.9v-14.57c0-2.7.95-5,2.86-6.9,1.91-1.9,4.2-2.84,6.88-2.84h29.18ZM715.27,124.34c0-.79-.28-1.48-.85-2.06-.57-.58-1.26-.87-2.08-.87h-29.18c-.79,0-1.48.29-2.06.87-.58.58-.87,1.27-.87,2.06v16.55c0,.8.29,1.48.87,2.06.58.58,1.26.87,2.06.87h29.18c.82,0,1.51-.29,2.08-.87.57-.58.85-1.26.85-2.06v-16.55Z"></path>
    <path class="cls-1" d="M771.21,115.59c2.7,0,5,.95,6.9,2.84,1.89,1.89,2.84,4.19,2.84,6.9v14.57c0,2.7-.95,5-2.84,6.9s-4.19,2.84-6.9,2.84h-29.18c-2.68,0-4.97-.95-6.88-2.84-1.91-1.89-2.86-4.19-2.86-6.9v-14.57c0-2.7.95-5,2.86-6.9,1.91-1.9,4.2-2.84,6.88-2.84h29.18ZM774.14,124.34c0-.79-.28-1.48-.85-2.06-.57-.58-1.26-.87-2.08-.87h-29.18c-.79,0-1.48.29-2.06.87-.58.58-.87,1.27-.87,2.06v16.55c0,.8.29,1.48.87,2.06.58.58,1.26.87,2.06.87h29.18c.82,0,1.51-.29,2.08-.87.57-.58.85-1.26.85-2.06v-16.55Z"></path>
    <path class="cls-1" d="M791.16,115.9c0-.09.03-.16.09-.22.06-.06.12-.08.19-.08h48.08c.07,0,.13.03.19.08.06.06.09.13.09.22v5.24c0,.07-.03.13-.09.19s-.12.08-.19.08h-20.63v27.92c0,.09-.03.17-.08.22s-.12.09-.19.09h-6.23c-.09,0-.16-.03-.22-.09-.06-.06-.09-.13-.09-.22v-27.92h-20.63c-.07,0-.13-.03-.19-.08-.06-.06-.09-.12-.09-.19v-5.24Z"></path>
    <path class="cls-1" d="M856.81,129.69h36.67c.09,0,.16.03.22.09s.09.13.09.22v5.24c0,.09-.03.17-.09.22s-.13.08-.22.08h-36.67v5.35c0,.8.28,1.48.85,2.06.57.58,1.26.87,2.08.87h38.61c.09,0,.17.03.22.09s.09.12.09.19v5.24c0,.09-.03.17-.09.22-.06.06-.13.09-.22.09h-38.61c-2.7,0-5-.95-6.9-2.84-1.89-1.89-2.84-4.19-2.84-6.9v-14.57c0-2.7.95-5,2.84-6.9,1.89-1.9,4.19-2.84,6.9-2.84h38.61c.09,0,.17.03.22.08.06.06.09.13.09.22v5.24c0,.07-.03.13-.09.19s-.13.08-.22.08h-38.61c-.82,0-1.51.29-2.08.87-.57.58-.85,1.27-.85,2.06v5.35Z"></path>
    <path class="cls-1" d="M957.5,128.73c0,1.97-.52,3.75-1.57,5.33-1.04,1.58-2.43,2.75-4.15,3.52l.14.27,5.41,11.37c.02.09,0,.18-.04.27-.04.09-.12.14-.24.14h-6.91c-.11,0-.2-.06-.27-.17l-5.24-11h-28.94v10.9c0,.07-.03.13-.08.19s-.13.09-.22.09h-6.23c-.07,0-.13-.03-.19-.09-.06-.06-.09-.12-.09-.19v-33.47c0-.09.03-.16.09-.22.06-.06.12-.08.19-.08h38.65c2.68,0,4.97.95,6.86,2.84,1.89,1.89,2.84,4.19,2.84,6.9v3.4ZM915.69,132.62h32.11c.8,0,1.48-.28,2.04-.85.57-.57.85-1.26.85-2.08v-5.35c0-.79-.28-1.47-.85-2.04-.57-.57-1.25-.85-2.04-.85h-32.11v11.17Z"></path>
  </g>
</svg>
